<svg width="101" height="100" viewBox="0 0 101 100" fill="none" xmlns="http://www.w3.org/2000/svg">
<path d="M50.1074 84.3125L87.6074 78.9562V16.5812L51.4324 21.75C50.5535 21.8755 49.6613 21.8755 48.7824 21.75L12.6074 16.5812V78.9562L50.1074 84.3125ZM13.4887 10.3937L49.6637 15.5625C49.958 15.6047 50.2568 15.6047 50.5512 15.5625L86.7262 10.3937C87.6124 10.2675 88.5155 10.3332 89.3742 10.5862C90.2329 10.8393 91.0272 11.2739 91.7034 11.8606C92.3796 12.4473 92.9218 13.1724 93.2935 13.9868C93.6651 14.8012 93.8574 15.686 93.8574 16.5812V78.9562C93.8574 80.4612 93.3144 81.9155 92.3281 83.0522C91.3418 84.1889 89.9786 84.9315 88.4887 85.1437L50.5512 90.5625C50.2568 90.6047 49.958 90.6047 49.6637 90.5625L11.7262 85.1437C10.2363 84.9315 8.873 84.1889 7.88673 83.0522C6.90045 81.9155 6.35744 80.4612 6.35742 78.9562V16.5812C6.35743 15.686 6.54975 14.8012 6.92138 13.9868C7.293 13.1724 7.83525 12.4473 8.51143 11.8606C9.18761 11.2739 9.98193 10.8393 10.8406 10.5862C11.6993 10.3332 12.6024 10.2675 13.4887 10.3937Z" fill="#0D0D0D" fill-opacity="0.3"/>
<path d="M46.9824 22.0994H53.2324V84.3003H46.9824V22.0994Z" fill="#0D0D0D" fill-opacity="0.3"/>
<path d="M15.9805 28.4722L16.6808 24.8805L44.699 29.3481L43.9987 32.9398L15.9805 28.4722Z" fill="#0D0D0D" fill-opacity="0.3"/>
<path d="M14.393 46.6538L15.0933 43.0622L45.6773 47.9389L44.977 51.5305L14.393 46.6538Z" fill="#0D0D0D" fill-opacity="0.3"/>
<path d="M14.3931 55.7449L15.0934 52.1532L44.485 56.8398L43.7846 60.4315L14.3931 55.7449Z" fill="#0D0D0D" fill-opacity="0.3"/>
<path d="M13.335 73.9265L14.0353 70.3349L43.4269 75.0215L42.7265 78.6131L13.335 73.9265Z" fill="#0D0D0D" fill-opacity="0.3"/>
<path d="M56.3633 33.1587L55.663 29.567L85.0545 24.8805L85.7549 28.4721L56.3633 33.1587Z" fill="#0D0D0D" fill-opacity="0.3"/>
<path d="M56.8926 42.728L56.1923 39.1364L85.5838 34.4498L86.2842 38.0414L56.8926 42.728Z" fill="#0D0D0D" fill-opacity="0.3"/>
<path d="M56.8926 52.2974L56.1923 48.7057L85.5838 44.0191L86.2842 47.6108L56.8926 52.2974Z" fill="#0D0D0D" fill-opacity="0.3"/>
<path d="M57.4214 61.8667L56.7211 58.2751L86.1126 53.5885L86.813 57.1801L57.4214 61.8667Z" fill="#0D0D0D" fill-opacity="0.3"/>
<path d="M56.3633 71.436L55.663 67.8444L85.0545 63.1578L85.7549 66.7494L56.3633 71.436Z" fill="#0D0D0D" fill-opacity="0.3"/>
<path d="M13.8643 64.8357L14.5646 61.244L43.9562 65.9306L43.2558 69.5223L13.8643 64.8357Z" fill="#0D0D0D" fill-opacity="0.3"/>
<path d="M15.4512 34.6921L16.1515 31.1005L33.5223 33.8703L32.8219 37.462L15.4512 34.6921Z" fill="#0D0D0D" fill-opacity="0.3"/>
</svg>
