<svg width="100" height="110" viewBox="0 0 111 120" fill="none" xmlns="http://www.w3.org/2000/svg">
<path d="M32.7319 16.935C36.7755 13.829 41.7118 12.1537 46.7842 12.1661C48.2072 12.1661 49.3396 12.9178 49.9978 13.435C50.733 14.0244 51.4208 14.7761 52.0374 15.5278C52.4747 16.0664 52.7136 16.7425 52.7134 17.4402V39.2283H46.2802C45.5808 37.222 44.2047 35.5311 42.3951 34.4544C40.5855 33.3777 38.4588 32.9845 36.391 33.3444C34.3232 33.7042 32.4474 34.7939 31.0951 36.4208C29.7428 38.0478 29.0011 40.1072 29.0011 42.2352C29.0011 44.3631 29.7428 46.4226 31.0951 48.0495C32.4474 49.6765 34.3232 50.7662 36.391 51.126C38.4588 51.4858 40.5855 51.0927 42.3951 50.016C44.2047 48.9393 45.5808 47.2484 46.2802 45.2421H52.7134V101.862C52.7137 102.307 52.6165 102.747 52.4289 103.15C52.2412 103.552 51.9678 103.907 51.6283 104.19C48.889 106.463 45.2248 108.387 40.8549 108.387C33.8228 108.387 28.5873 104.791 25.2017 100.491C22.7693 97.4274 21.1033 93.8126 20.3457 89.9549C18.0421 89.3319 15.9062 88.1912 14.0963 86.6172C10.8234 83.7726 8.24414 79.16 8.24414 72.3043C8.24414 68.9546 8.46352 65.9296 8.95565 63.2836H27.5141C31.2851 63.2836 34.3921 66.1401 34.8664 69.8326C32.8946 70.5564 31.2384 71.9635 30.1901 73.8055C29.1419 75.6476 28.769 77.806 29.1374 79.8998C29.5058 81.9936 30.5918 83.888 32.2036 85.2485C33.8153 86.6091 35.8492 87.3482 37.9461 87.3355C40.043 87.3228 42.068 86.559 43.6636 85.1791C45.2593 83.7991 46.3228 81.8916 46.6665 79.7935C47.0102 77.6955 46.612 75.5417 45.5421 73.7125C44.4722 71.8833 42.7995 70.4963 40.8193 69.7965C40.5694 66.3909 39.0591 63.2071 36.5914 60.8838C34.1237 58.5604 30.8811 57.2694 27.5141 57.2697H10.8589C11.7661 55.4776 12.9816 53.9621 14.5647 52.8857C14.9651 52.6168 15.3854 52.3795 15.8217 52.176C14.1378 47.1725 14.5766 41.3151 16.2012 36.7145C17.2388 33.7557 18.8871 30.9593 21.1521 29.095C22.6462 27.8622 24.425 27.0503 26.3698 26.8939C27.2236 22.7865 29.625 19.3887 32.7378 16.935H32.7319ZM58.6426 87.3388H63.0895C66.6277 87.3388 70.021 85.9132 72.5229 83.3757C75.0248 80.8381 76.4303 77.3964 76.4303 73.8077V62.7724C78.4083 62.0631 80.0755 60.6673 81.137 58.8319C82.1986 56.9964 82.5862 54.8394 82.2315 52.7421C81.8767 50.6448 80.8023 48.7423 79.1983 47.3707C77.5942 45.9991 75.5637 45.2468 73.4657 45.2468C71.3677 45.2468 69.3372 45.9991 67.7331 47.3707C66.1291 48.7423 65.0547 50.6448 64.6999 52.7421C64.3452 54.8394 64.7328 56.9964 65.7944 58.8319C66.8559 60.6673 68.523 62.0631 70.5011 62.7724V73.8077C70.5011 77.9573 67.1807 81.325 63.0895 81.325H58.6426V17.4402C58.6424 16.7425 58.8813 16.0664 59.3186 15.5278C59.9293 14.7761 60.623 14.0244 61.3582 13.435C62.0104 12.9178 63.1429 12.1661 64.5718 12.1661C69.6442 12.1537 74.5805 13.829 78.6241 16.935C81.737 19.3887 84.1383 22.7865 84.9862 26.8939C86.931 27.0443 88.7098 27.8622 90.2039 29.095C92.4689 30.9593 94.1172 33.7557 95.1548 36.7145C96.7794 41.3151 97.2182 47.1786 95.5343 52.17C95.9612 52.3745 96.3822 52.615 96.7913 52.8917C98.4218 53.9922 99.661 55.5678 100.574 57.4261C102.371 61.0645 103.112 66.1401 103.112 72.3043C103.112 79.1661 100.533 83.7726 97.2597 86.6172C95.4498 88.1912 93.3139 89.3319 91.0103 89.9549C90.4174 93.3106 88.7572 97.1955 86.1543 100.491C82.7746 104.791 77.5331 108.387 70.5011 108.387C66.1372 108.387 62.467 106.463 59.7336 104.19C59.3931 103.908 59.1185 103.553 58.9298 103.15C58.7411 102.748 58.643 102.308 58.6426 101.862V87.3388ZM37.8903 39.2283C37.104 39.2283 36.35 39.5451 35.794 40.109C35.238 40.6729 34.9257 41.4377 34.9257 42.2352C34.9257 43.0327 35.238 43.7975 35.794 44.3614C36.35 44.9253 37.104 45.2421 37.8903 45.2421C38.6766 45.2421 39.4306 44.9253 39.9866 44.3614C40.5426 43.7975 40.8549 43.0327 40.8549 42.2352C40.8549 41.4377 40.5426 40.6729 39.9866 40.109C39.4306 39.5451 38.6766 39.2283 37.8903 39.2283ZM37.8903 75.3112C37.104 75.3112 36.35 75.628 35.794 76.1919C35.238 76.7558 34.9257 77.5206 34.9257 78.3181C34.9257 79.1156 35.238 79.8804 35.794 80.4443C36.35 81.0082 37.104 81.325 37.8903 81.325C38.6766 81.325 39.4306 81.0082 39.9866 80.4443C40.5426 79.8804 40.8549 79.1156 40.8549 78.3181C40.8549 77.5206 40.5426 76.7558 39.9866 76.1919C39.4306 75.628 38.6766 75.3112 37.8903 75.3112ZM73.4657 57.2697C74.252 57.2697 75.006 56.9529 75.562 56.389C76.118 55.8251 76.4303 55.0603 76.4303 54.2628C76.4303 53.4653 76.118 52.7005 75.562 52.1366C75.006 51.5727 74.252 51.2559 73.4657 51.2559C72.6794 51.2559 71.9254 51.5727 71.3694 52.1366C70.8134 52.7005 70.5011 53.4653 70.5011 54.2628C70.5011 55.0603 70.8134 55.8251 71.3694 56.389C71.9254 56.9529 72.6794 57.2697 73.4657 57.2697Z" fill="#0D0D0D" fill-opacity="0.4"/>
</svg>
