<svg width="86" height="106" viewBox="0 0 86 106" fill="none" xmlns="http://www.w3.org/2000/svg">
<path d="M65.4624 7.00621C65.4628 5.24981 64.8818 3.56516 63.8471 2.32285C62.8124 1.08054 61.4089 0.382333 59.9452 0.381836C59.2205 0.38159 58.5028 0.552642 57.8332 0.885226C57.1635 1.21781 56.555 1.70541 56.0424 2.3202C55.0071 3.5618 54.4253 5.24607 54.4249 7.00246C54.4249 10.6587 59.9437 23.0037 59.9437 23.0037C59.9437 23.0037 65.4624 10.6587 65.4624 7.00246V7.00621ZM57.3061 7.00621C57.2938 6.58167 57.3527 6.15848 57.4795 5.76186C57.6063 5.36524 57.7983 5.0033 58.0441 4.69762C58.29 4.39195 58.5845 4.14878 58.9103 3.98261C59.2361 3.81644 59.5865 3.73068 59.9405 3.73043C60.2945 3.73017 60.6449 3.81544 60.9708 3.98114C61.2968 4.14685 61.5916 4.3896 61.8378 4.69493C62.0839 5.00026 62.2763 5.36192 62.4034 5.75836C62.5306 6.1548 62.59 6.5779 62.578 7.00246C62.5549 7.82254 62.2673 8.5998 61.7758 9.17029C61.2843 9.74079 60.6274 10.0599 59.9436 10.0604C59.2598 10.0609 58.6026 9.7427 58.1105 9.1729C57.6185 8.6031 57.3301 7.82626 57.3061 7.00621ZM72.003 62.3562C70.253 62.3562 68.5749 62.5325 67.0343 62.8175L27.6874 45.41C28.3124 44.735 28.6624 43.985 28.6624 43.1975C28.6544 42.7823 28.5598 42.3762 28.3874 42.0162L54.6686 33.6237C56.1061 34.1375 57.8655 34.4487 59.8124 34.4487C64.5624 34.4487 68.4061 32.6337 68.4061 30.3912C68.4061 28.1412 64.5624 26.33 59.8124 26.33C55.0624 26.33 51.2186 28.1487 51.2186 30.3912C51.2186 30.6537 51.2811 30.905 51.3874 31.1487L23.9249 38.75C21.6223 37.9705 19.2391 37.5879 16.8468 37.6137C10.3249 37.6137 5.03428 40.115 5.03428 43.2012C5.03428 46.2875 10.3249 48.7887 16.8468 48.7887C18.6405 48.7887 20.3155 48.5825 21.8405 48.245L59.3093 66.4925C58.7155 67.2125 58.353 67.9925 58.353 68.8287C58.353 69.5412 58.653 70.1937 59.0905 70.8275L20.1718 88.3062C19.678 88.2875 19.1843 88.2687 18.6812 88.2687C8.55615 88.2687 0.337402 92.1537 0.337402 96.9312C0.337402 101.72 8.55615 105.605 18.6812 105.605C28.8062 105.605 37.0249 101.727 37.0249 96.935C37.0249 96.11 36.7655 95.315 36.3062 94.5612L68.3874 75.0087C69.5437 75.1587 70.7405 75.2525 71.9968 75.2525C79.5374 75.2525 85.653 72.365 85.653 68.7912C85.653 65.2512 79.5374 62.3562 71.9968 62.3562H72.003Z" fill="#0D0D0D" fill-opacity="0.4"/>
</svg>
